<svg enable-background="new 0 0 945 495" viewBox="0 0 945 495" xmlns="http://www.w3.org/2000/svg"><path d="M0 0H945V495H0Z" fill="#f7f7f7"/><circle cx="472.5" cy="247.5" fill="#ffffff" r="233.1"/><path d="M650.56 270.37H492.28c-13.86 0-25.1-11.24-25.1-25.1V69.61c0-13.86 11.24-25.1 25.1-25.1h158.28c13.86 0 25.1 11.24 25.1 25.1v175.66C675.66 259.13 664.43 270.37 650.56 270.37z" fill="#c2dbf3"/><path d="M623.55 114H519.3c-9.59 0-17.37-7.78-17.37-17.37v0c0-9.59 7.78-17.37 17.37-17.37h104.25c9.59 0 17.37 7.78 17.37 17.37v0C640.92 106.23 633.14 114 623.55 114z" fill="#ffffff"/><path d="M623.55 166.12H519.3c-9.59 0-17.37-7.78-17.37-17.37v0c0-9.59 7.78-17.37 17.37-17.37h104.25c9.59 0 17.37 7.78 17.37 17.37v0C640.92 158.34 633.14 166.12 623.55 166.12z" fill="#ffffff"/><path d="M623.55 235.62H519.3c-9.59 0-17.37-7.78-17.37-17.37v0c0-9.59 7.78-17.37 17.37-17.37h104.25c9.59 0 17.37 7.78 17.37 17.37v0C640.92 227.84 633.14 235.62 623.55 235.62z" fill="#3e5fff"/><path d="M312.34 246.27h109.8v51.33c0 14.33-11.62 25.96-25.96 25.96h-83.84V246.27z" fill="#c2dbf3"/><path d="M509.07 495H274.26l-.02-159.13c-.01-2.52.78-4.99 2.25-7.05 1.14-1.61 2.63-2.88 4.34-3.76 1.7-.88 3.61-1.36 5.58-1.36l210.47-.17c3.94 0 7.64 1.9 9.92 5.11.73 1.03 1.29 2.16 1.67 3.35.38 1.19.58 2.44.58 3.7L509.07 495z" fill="#94d0f8"/><path d="M382.64 76.96l-24.67 83.29 75.37 11.82 2.01-86.84c.32-13.48-9.4-25.12-22.73-27.21C399.29 55.92 386.48 64.03 382.64 76.96L382.64 76.96z"/><path d="M440.33 273.33l-90.44-14.18-15.41 20.41c-2.84 1.07-5.79 1.35-8.6.91-5.37-.84-10.21-4.27-12.65-9.52l-8.52-18.18c-6.55-14.04-5.81-30.41 2-43.8l28.02-48c5.27-9.03 13.38-16.08 23.05-20.04l20.76-8.51c2.44-1.01 25.4-10.96 28.02-10.55l0 0c2.61.41 22.46 17.07 24.48 18.78l17.16 14.46c8 6.73 13.56 15.93 15.8 26.13l12 54.27c.02.14.06.29.09.45C480.62 257.44 462.01 276.73 440.33 273.33L440.33 273.33z" fill="#ff7059"/><path d="M430.76 271.68c-7.59-1.19-18.96-12.2-24.95-18.53-1.66-1.74-4.59-.82-4.96 1.55l-1.88 11.99L430.76 271.68z" fill="#e55041"/><path d="M384.04 185.63c-2.11.33-3.57 2.33-3.24 4.44l1.92 12.24c.33 2.11 2.33 3.57 4.44 3.24.54-.08 1.06-.27 1.5-.56l15.12-9.76c1.66-1.06 2.87-2.69 3.42-4.57l1.7-5.79c.44-1.52-.84-3-2.42-2.75L384.04 185.63" fill="#ffbd6e"/><path d="M419.53 171.64l-15.58-2.44c-3.19-.5-6.18 1.67-6.68 4.87l-5.53 35.29c-.5 3.19 1.69 6.18 4.87 6.68l15.58 2.44c3.19.5 6.18-1.69 6.68-4.87l5.53-35.29C424.91 175.12 422.72 172.13 419.53 171.64z" fill="#ffffff"/><path d="M424.6 194.61l-22.45-3.52c-1.58-.25-2.86 1.23-2.42 2.75l1.7 5.79c.55 1.88 1.76 3.51 3.42 4.57l15.12 9.76c.44.29.96.48 1.5.56 2.11.33 4.11-1.12 4.44-3.24l1.92-12.24C428.17 196.94 426.71 194.94 424.6 194.61" fill="#ffbd6e"/><path d="M420.97 145.39l-10.49 14.57c-5.25 7.27-16.52 5.5-19.28-3.02l-5.51-17.07c-.69-2.1-.71-4.34-.08-6.46l11.83-40.05 26.59 4.17-1 41.75C422.98 141.47 422.25 143.6 420.97 145.39z" fill="#ffbd6e"/><path d="M423.28 128.77c-.84.37-1.68.69-2.55.96-3.19.98-6.64 1.25-10.15.7-3.96-.62-7.51-2.21-10.46-4.52-.94-.73-.07-2.23 1.03-1.79 1.54.61 3.15 1.05 4.85 1.32 6.43 1.01 12.68-.78 17.46-4.48L423.28 128.77z" fill="#e59a48"/><path d="M294.81 303.43l-3.77-79.82c-3.23-16.88 9.71-32.52 26.89-32.52h0c8.33 0 16.2 3.79 21.4 10.3l37.22 61.95-3.31 27.56-34.76 12.54" fill="#c2dbf3"/><path d="M461.89 434.37c-3.25 7.12 28.4 25.77 24.89 33.46l-68.98-31.46c3.74-8.2 12.65-16.34 12.65-16.34L461.89 434.37z"/><path d="M338.53 299.84v-59.79c0-.72.58-1.3 1.3-1.3l0 0c.65 0 1.21.48 1.29 1.13l11.2 83.67-14.17-.14L338.53 299.84z" fill="#9ac1dd"/><path d="M303.91 303.43h34.56c0 10.06 2.09 10.06 2.09 20.12h-50.5C290.06 315.62 303.91 310.92 303.91 303.43z"/><path d="M381.13 323.52l52.3.06-9.6 95.24 44.41 20.33 17.49-136.71c0-11.55-6.68-22.05-17.14-26.94l0 0c-2.64-1.23-5.45-2.07-8.33-2.49l-83.72-9.67L381.13 323.52z" fill="#c2dbf3"/><circle cx="442.86" cy="244.14" fill="#ff7059" r="32.89"/><g fill="#ffbd6e"><path d="M392.63 95.26c-.09-2.98-2.56-5.3-5.53-5.22-2.97.09-5.3 2.56-5.22 5.53.09 2.96 2.64 7.75 5.6 7.66C390.45 103.15 392.72 98.22 392.63 95.26z"/><path d="M436.55 93.97c-.09-2.98-2.56-5.3-5.53-5.22-2.97.09-5.3 2.56-5.22 5.53.09 2.96 2.64 7.75 5.6 7.66C434.37 101.85 436.64 96.93 436.55 93.97z"/><path d="M410.1 125.6c-12.47.37-23.01-9.18-23.88-21.62l-1.16-12.59c-.95-13.63 9.63-25.31 23.27-25.71 13.65-.4 24.89 10.64 24.75 24.3l-.42 12.63C432.53 115.08 422.57 125.23 410.1 125.6z"/></g><path d="M401.97 101c.06 1.93-.18 3.5-1.05 3.52-.87.03-1.19-1.52-1.25-3.45-.06-1.92.18-3.48 1.05-3.51C401.59 97.53 401.91 99.08 401.97 101z"/><path d="M402.89 93.4c.32-.26.52-.66.5-1.1-.03-.73-.64-1.31-1.38-1.28-.13 0-3.25.14-6.04 2.61-.56.49-.61 1.33-.11 1.89.49.55 1.34.6 1.89.11 2.04-1.82 4.34-1.94 4.36-1.93.3-.01.57-.13.79-.3"/><path d="M417.81 97.05c.87-.03 1.19 1.52 1.25 3.44.06 1.93-.18 3.5-1.05 3.52-.87.03-1.19-1.52-1.25-3.45C416.71 98.64 416.94 97.08 417.81 97.05z"/><path d="M415.41 93.24c.24.14.52.22.82.2.02-.01 2.32-.16 4.55 1.42.61.43 1.44.28 1.87-.32.43-.62.28-1.44-.33-1.87-3.05-2.14-6.17-1.93-6.3-1.91-.73.06-1.28.71-1.23 1.43.03.44.27.81.62 1.04"/><path d="M432.88 79.51l.67 8.56c.07.85-.6 1.59-1.48 1.66-.43.03-.85-.1-1.19-.37l-13.84-11.71c-5.22-4.41-13.21-3.78-17.66 1.39l-11.87 13.73c-.27.32-.68.52-1.1.55-.89.07-1.65-.56-1.72-1.41l-.63-8.08c-1.01-12.85 8.65-24.5 21.99-25.84 6.95-.7 13.48 1.46 18.36 5.48 4.76 3.9 7.95 9.56 8.46 16.05L432.88 79.51z"/><path d="M410.29 115.05c0 0 5.21.6 8.44-3.51" fill="none" stroke="#000000" stroke-linecap="round" stroke-miterlimit="10" stroke-width="3"/></svg>